# xmcd CD database file
#
# Track frame offsets:
#	150
#	21186
#	32104
#	45162
#	53926
#	72738
#	83659
#	93607
#	106765
#	116574
#	133411
#	142399
#	153549
#	160353
#	167157
#
# Disc length: 2410 seconds
#
# Revision: 0
# Processed by: cddbd v1.5.2PL0 Copyright (c) Steve Scherf et al.
# Submitted via: jetAudio 7
#
DISCID=d709680f
DTITLE=中國人民大學學生藝術團  - 靑春圓無曲
DYEAR=1900
DGENRE=장르 없음
TTITLE0=青春舞曲
TTITLE1=萊斯賓卡
TTITLE2=哥斯達黎加人
TTITLE3=賽馬
TTITLE4=斯拉夫舞曲
TTITLE5=打虎上山
TTITLE6=春天
TTITLE7=藍色探戈
TTITLE8=西班牙斗牛士
TTITLE9=泰加森林舞曲
TTITLE10=美麗嘉年華
TTITLE11=憂鬰的塞納河
TTITLE12=波耶進行曲
TTITLE13=野蜂飛舞
TTITLE14=生命之杯
EXTD=
EXTT0=
EXTT1=
EXTT2=
EXTT3=
EXTT4=
EXTT5=
EXTT6=
EXTT7=
EXTT8=
EXTT9=
EXTT10=
EXTT11=
EXTT12=
EXTT13=
EXTT14=
PLAYORDER=
